<mxfile host="app.diagrams.net" modified="2024-02-28T21:02:54.554Z" agent="Mozilla/5.0 (Windows NT 10.0; Win64; x64) AppleWebKit/537.36 (KHTML, like Gecko) Chrome/122.0.0.0 Safari/537.36" version="23.1.7" etag="Xw1JYrXmEgC3T424pNWh" type="github">
  <diagram name="Page-1" id="pJrm57bfrxL9smMv0XKp">
    <mxGraphModel>
      <root>
        <mxCell id="0" />
        <mxCell id="1" parent="0" />
      </root>
    </mxGraphModel>
  </diagram>
</mxfile>
